<?xml version="1.0" encoding="UTF-8"?>
<!-- SPDX-License-Identifier: GPL-3.0-or-later -->
<svg xmlns="http://www.w3.org/2000/svg" width="16" height="16" viewBox="0 0 16 16">
  <path fill="#222222" d="M 10.2 4.4 L 11.6 5.8 L 3.2 14.2 C 2.8 14.6 2.2 14.6 1.8 14.2 C 1.4 13.8 1.4 13.2 1.8 12.8 Z M 12.5 0 L 13.3 1.7 L 15 2.5 L 13.3 3.3 L 12.5 5 L 11.7 3.3 L 10 2.5 L 11.7 1.7 Z M 14.5 6 L 15 7 L 16 7.5 L 15 8 L 14.5 9 L 14 8 L 13 7.5 L 14 7 Z M 8.5 1 L 9 2 L 10 2.5 L 9 3 L 8.5 4 L 8 3 L 7 2.5 L 8 2 Z"/>
</svg>
